<svg width="48" height="48" viewBox="0 0 48 48" fill="none" xmlns="http://www.w3.org/2000/svg">
<path d="M28.4852 25.2726C30.4348 25.2726 32.0153 23.6239 32.0153 21.5901C32.0153 19.5562 30.4348 17.9075 28.4852 17.9075C26.5356 17.9075 24.9551 19.5562 24.9551 21.5901C24.9551 23.6239 26.5356 25.2726 28.4852 25.2726Z" fill="white"/>
<path fill-rule="evenodd" clip-rule="evenodd" d="M28.4852 17.9547C26.5607 17.9547 25.0006 19.5822 25.0006 21.5899C25.0006 23.5975 26.5607 25.225 28.4852 25.225C30.4098 25.225 31.9699 23.5975 31.9699 21.5899C31.9699 19.5822 30.4098 17.9547 28.4852 17.9547ZM24.9097 21.5899C24.9097 19.5299 26.5105 17.8599 28.4852 17.8599C30.46 17.8599 32.0608 19.5299 32.0608 21.5899C32.0608 23.6499 30.46 25.3199 28.4852 25.3199C26.5105 25.3199 24.9097 23.6499 24.9097 21.5899Z" fill="white"/>
<path d="M12.5027 40.4715C15.76 41.144 17.074 38.9015 17.074 38.9015C17.074 38.9015 1.54408 23.9833 6.09266 9.90369C6.81832 7.65827 9.68642 6.34632 10.9168 6.30932C18.7736 6.06931 22.4037 20.8803 22.4037 20.8803C25.069 16.6143 28.5145 14.2181 28.5145 14.2181C36.2795 9.04138 40.7826 14.2181 40.7826 14.2181C51.763 26.5835 26.975 44.9651 26.975 44.9651C26.975 44.9651 47.6282 34.7322 46.9853 20.8803C46.3424 7.02838 33.2495 3.12191 24.678 10.1674C24.678 10.1674 19.3255 2.90563 13.9958 3.00144C13.9958 3.00144 1.93511 2.56981 1.03939 16.6617C0.392846 26.8273 7.87499 34.8565 10.9786 39.4716C11.3305 39.9952 11.8661 40.35 12.4699 40.4648C12.4809 40.4677 12.4927 40.4696 12.5027 40.4715Z" fill="white"/>
<path fill-rule="evenodd" clip-rule="evenodd" d="M23.0928 44.1042C19.4163 45.863 16.5282 44.2598 16.5282 44.2598C20.6121 45.7036 28.4516 40.0061 30.123 36.7324C31.1096 34.8001 29.9538 34.4481 29.2036 34.6957C28.8381 34.8161 28.5319 34.9959 28.239 35.1679C27.6296 35.5256 27.078 35.8495 26.1709 35.5343C24.8725 35.0828 24.0605 32.6974 23.4993 31.049C23.3755 30.6852 23.2638 30.3572 23.1619 30.0939C22.7254 28.9679 20.4966 27.8418 20.7266 31.1488C21.0567 35.8976 21.0704 36.6366 20.6121 37.7873C20.5905 37.8414 20.5687 37.8968 20.5464 37.9533C20.0126 39.3088 19.2191 41.3236 16.0041 41.9001C12.8532 42.4645 11.223 39.7339 11.223 39.7339C14.3218 41.8526 16.9589 38.9119 16.9589 38.9119C20.3189 33.7589 16.5632 26.544 13.2181 20.1179C11.383 16.5926 9.67143 13.3046 9.32609 10.7247C8.89506 7.50791 11.1821 8.93561 11.514 9.48486C26.1347 33.6993 30.6574 28.3893 35.0813 23.1951C35.3424 22.8886 35.6031 22.5825 35.8655 22.2829C38.4635 19.3165 38.6681 21.6719 38.6681 21.6719C38.4526 32.9322 28.5025 41.5164 23.0928 44.1042ZM29.7747 32.1335C29.7747 33.4438 28.7564 34.506 27.5004 34.506C26.2443 34.506 25.2261 33.4438 25.2261 32.1335C25.2261 30.8231 26.2443 29.7609 27.5004 29.7609C28.7564 29.7609 29.7747 30.8231 29.7747 32.1335Z" fill="white"/>
<path fill-rule="evenodd" clip-rule="evenodd" d="M10.9951 8.95426C11.252 9.11672 11.4641 9.31356 11.5525 9.45988L11.5525 9.4599C15.2069 15.5123 18.2292 19.7177 20.7755 22.5408C23.3224 25.3644 25.3899 26.8013 27.134 27.3229C28.875 27.8436 30.2986 27.4536 31.5642 26.6097C32.8324 25.764 33.9403 24.4637 35.0474 23.1639L35.0476 23.1637C35.3085 22.8573 35.5694 22.551 35.832 22.2512C36.4831 21.5078 36.9875 21.0938 37.3795 20.8937C37.7726 20.693 38.0582 20.7049 38.2632 20.8239C38.4654 20.9411 38.5772 21.1559 38.6384 21.3346C38.6693 21.4247 38.688 21.5076 38.699 21.568C38.7045 21.5982 38.7081 21.6229 38.7103 21.6402C38.7114 21.6488 38.7122 21.6556 38.7127 21.6603C38.713 21.6627 38.7132 21.6645 38.7133 21.6658L38.7134 21.6673L38.7135 21.6677L38.7135 21.6679C38.7135 21.6679 38.7135 21.668 38.6682 21.6723L38.7135 21.668L38.7137 21.6706L38.7137 21.6732C38.6056 27.3179 36.0578 32.2892 32.8628 36.1714C29.668 40.0535 25.8228 42.8508 23.1118 44.1477C21.2642 45.0315 19.6139 45.0708 18.4252 44.8888C17.831 44.7978 17.3522 44.6515 17.0216 44.5278C16.8563 44.4659 16.728 44.4097 16.6408 44.3688C16.5973 44.3484 16.564 44.3318 16.5415 44.3203C16.5302 44.3145 16.5217 44.31 16.5159 44.3069C16.5138 44.3058 16.512 44.3048 16.5106 44.3041L16.5093 44.3033L16.5075 44.3024L16.5071 44.3021L16.5069 44.302C16.5069 44.302 16.5069 44.302 16.5121 44.2918L16.5069 44.302L16.5428 44.2152C17.5516 44.5718 18.797 44.4888 20.1282 44.1077C21.4586 43.7269 22.8699 43.0498 24.2072 42.2247C25.5443 41.3997 26.8061 40.4276 27.8376 39.4578C28.8697 38.4874 29.6686 37.5218 30.0829 36.7104C30.5746 35.7474 30.5194 35.2032 30.281 34.9287C30.1604 34.7899 29.9875 34.7124 29.7964 34.6851C29.6053 34.6577 29.3992 34.6812 29.2174 34.7412L29.2174 34.7412C28.857 34.86 28.5546 35.0373 28.2614 35.2095L28.2586 35.2111C27.9558 35.3889 27.6611 35.5619 27.3278 35.6498C26.9916 35.7383 26.6181 35.74 26.1566 35.5796C25.4892 35.3475 24.9545 34.6228 24.5185 33.763C24.0815 32.9011 23.7373 31.89 23.4571 31.0668L23.4565 31.0652C23.3326 30.701 23.2213 30.3741 23.1198 30.112C23.0143 29.84 22.7991 29.5649 22.5374 29.3567C22.2754 29.1482 21.9723 29.011 21.6937 29.0067C21.4186 29.0025 21.1636 29.1275 20.9884 29.454C20.8114 29.784 20.7148 30.3227 20.772 31.1457L20.7267 31.1491L20.772 31.1457C21.1018 35.8895 21.1175 36.6422 20.6541 37.8058C20.6326 37.8598 20.6108 37.9151 20.5886 37.9717L20.5878 37.9737C20.3211 38.6507 19.9867 39.5 19.314 40.2515C18.6396 41.005 17.6282 41.6573 16.0118 41.9471L16.0045 41.9027L16.0118 41.9471C14.4214 42.232 13.2139 41.685 12.4052 41.0672C12.001 40.7585 11.6962 40.4321 11.4924 40.1828C11.3905 40.0581 11.3137 39.9526 11.2623 39.8781C11.2367 39.8409 11.2173 39.8114 11.2043 39.7911C11.1978 39.7809 11.1929 39.7731 11.1896 39.7677C11.1885 39.7659 11.1875 39.7643 11.1867 39.763L11.1858 39.7616L11.1849 39.7599L11.1846 39.7595L11.1845 39.7593C11.1845 39.7593 11.1845 39.7593 11.2231 39.7342L11.1845 39.7593L11.0753 39.5765L11.248 39.6945C12.7816 40.7431 14.1988 40.5399 15.2351 40.0742C15.7538 39.8411 16.1769 39.5421 16.4704 39.3013C16.6171 39.181 16.7312 39.0753 16.8085 38.9998C16.8472 38.9621 16.8767 38.9319 16.8964 38.9112C16.9029 38.9044 16.9084 38.8985 16.9128 38.8938C16.915 38.8915 16.9169 38.8894 16.9186 38.8876C16.9206 38.8854 16.9222 38.8837 16.9234 38.8824C18.5901 36.3237 18.4944 33.2502 17.5594 30.0063C16.624 26.7608 14.8513 23.355 13.1782 20.1409L13.1777 20.14C12.2605 18.378 11.3733 16.6735 10.6722 15.087C9.97117 13.5005 9.45472 12.0285 9.28112 10.7316C9.17294 9.92427 9.23353 9.39798 9.3994 9.0746C9.48288 8.91186 9.59301 8.80063 9.72068 8.7321C9.84796 8.66378 9.99002 8.63932 10.1358 8.64544C10.4263 8.65763 10.7375 8.79134 10.9951 8.95426ZM16.959 38.9122C16.9922 38.9446 16.9921 38.9446 16.9921 38.9447L16.992 38.9448L16.9916 38.9453L16.99 38.947C16.9886 38.9485 16.9867 38.9507 16.984 38.9535C16.9788 38.9592 16.971 38.9675 16.9608 38.9782C16.9404 38.9996 16.9102 39.0305 16.8707 39.0691C16.7917 39.1461 16.6756 39.2536 16.5266 39.3759C16.2288 39.6202 15.7989 39.9241 15.271 40.1613C14.2575 40.6168 12.8818 40.8265 11.3904 39.8993C11.4356 39.9617 11.4927 40.037 11.5616 40.1213C11.7619 40.3663 12.0616 40.6873 12.4589 40.9907C13.2529 41.5972 14.436 42.1332 15.9964 41.8536C17.5951 41.567 18.5879 40.9237 19.2475 40.1868C19.9082 39.4486 20.2374 38.6137 20.5044 37.9356L20.5046 37.9352C20.5268 37.8788 20.5486 37.8235 20.5701 37.7694L20.6093 37.7864L20.5701 37.7694C21.0233 36.6316 21.0118 35.9064 20.6813 31.1525C20.6236 30.322 20.7193 29.7613 20.9091 29.4076C21.1008 29.0503 21.3871 28.9072 21.695 28.9119C21.9994 28.9165 22.321 29.0652 22.5925 29.2812C22.8643 29.4975 23.0913 29.7854 23.2041 30.0764L23.2041 30.0764C23.3064 30.3407 23.4183 30.6694 23.5419 31.0325L23.5422 31.0335C23.823 31.8583 24.1653 32.8634 24.5989 33.7186C25.0339 34.5765 25.5544 35.2702 26.1854 35.4896C26.631 35.6445 26.9868 35.6418 27.3055 35.5578C27.6261 35.4733 27.9111 35.3063 28.2167 35.1269L28.2182 35.126C28.5103 34.9545 28.82 34.7727 29.1899 34.6508C29.3832 34.587 29.6029 34.5616 29.8087 34.5911C30.0145 34.6205 30.2096 34.7053 30.3484 34.865C30.6287 35.1877 30.6581 35.7857 30.1631 36.755C29.7417 37.5805 28.9339 38.5548 27.8985 39.5283C26.8623 40.5024 25.5956 41.4782 24.2535 42.3063C22.9114 43.1344 21.4926 43.8155 20.1523 44.1992C19.0661 44.5101 18.0284 44.6266 17.1239 44.4648C17.4458 44.5807 17.8928 44.7114 18.4384 44.795C19.6129 44.9748 21.245 44.9364 23.0739 44.0614C25.7725 42.7705 29.6073 39.9817 32.7938 36.1097C35.9798 32.2384 38.5144 27.2885 38.6227 21.6741C38.6226 21.6733 38.6225 21.6722 38.6223 21.6708C38.622 21.668 38.6216 21.6641 38.621 21.6592C38.6208 21.6572 38.6205 21.6551 38.6202 21.6528C38.6182 21.6371 38.6148 21.6141 38.6097 21.5857C38.5993 21.5288 38.5817 21.4509 38.5528 21.3665C38.4945 21.1963 38.3928 21.0076 38.219 20.9068C38.0482 20.8076 37.7955 20.7869 37.4195 20.9789C37.0425 21.1714 36.5471 21.5754 35.8991 22.3152C35.637 22.6145 35.3765 22.9203 35.1154 23.2269L35.1153 23.2269L35.1127 23.23C34.0086 24.5263 32.893 25.8362 31.6131 26.6896C30.3296 27.5455 28.8792 27.9435 27.109 27.4141C25.3419 26.8857 23.2608 25.4345 20.7093 22.6058C18.1573 19.7765 15.1315 15.5653 11.4756 9.51047C11.3981 9.38216 11.1997 9.19457 10.948 9.03538C10.6969 8.87665 10.4011 8.75151 10.1322 8.74022C9.99829 8.7346 9.87258 8.75725 9.76228 8.81645C9.65237 8.87545 9.55509 8.97215 9.47958 9.11936C9.32749 9.41585 9.26384 9.9174 9.37118 10.7185L9.37118 10.7185C9.54292 12.0015 10.0549 13.4634 10.7548 15.0473C11.4545 16.6307 12.3404 18.3326 13.2581 20.0956L13.2595 20.0983C14.9311 23.3095 16.7081 26.7232 17.6465 29.979C18.5853 33.236 18.6878 36.3452 16.9966 38.9389L16.9946 38.9419L16.9922 38.9446L16.959 38.9122ZM25.1807 32.1338C25.1807 30.7973 26.2193 29.7138 27.5004 29.7138C28.7816 29.7138 29.8202 30.7973 29.8202 32.1338C29.8202 33.4703 28.7816 34.5537 27.5004 34.5537C26.2193 34.5537 25.1807 33.4703 25.1807 32.1338ZM27.5004 29.8087C26.2695 29.8087 25.2716 30.8497 25.2716 32.1338C25.2716 33.4179 26.2695 34.4589 27.5004 34.4589C28.7314 34.4589 29.7293 33.4179 29.7293 32.1338C29.7293 30.8497 28.7314 29.8087 27.5004 29.8087Z" fill="white"/>
</svg>
